%TF.GenerationSoftware,KiCad,Pcbnew,10.0.6*%
%TF.CreationDate,2026-10-03T00:49:32+05:45*%
%TF.ProjectId,hack,6861636b-2e6b-4696-9361-645f70636258,rev?*%
%TF.SameCoordinates,Original*%
%TF.FileFunction,Legend,Top*%
%TF.FilePolarity,Positive*%
%FSLAX46Y46*%
G04 Gerber Fmt 4.6, Leading zero omitted, Abs format (unit mm)*
G04 Created by KiCad (PCBNEW 10.0.6) date 2026-10-03 00:49:32*
%MOMM*%
%LPD*%
G01*
G04 APERTURE LIST*
%ADD10C,0.150000*%
%ADD11C,0.120000*%
%ADD12C,0.010000*%
G04 APERTURE END LIST*
D10*
X80666666Y-36554819D02*
X80333333Y-36078628D01*
X80095238Y-36554819D02*
X80095238Y-35554819D01*
X80095238Y-35554819D02*
X80476190Y-35554819D01*
X80476190Y-35554819D02*
X80571428Y-35602438D01*
X80571428Y-35602438D02*
X80619047Y-35650057D01*
X80619047Y-35650057D02*
X80666666Y-35745295D01*
X80666666Y-35745295D02*
X80666666Y-35888152D01*
X80666666Y-35888152D02*
X80619047Y-35983390D01*
X80619047Y-35983390D02*
X80571428Y-36031009D01*
X80571428Y-36031009D02*
X80476190Y-36078628D01*
X80476190Y-36078628D02*
X80095238Y-36078628D01*
X81095238Y-36031009D02*
X81428571Y-36031009D01*
X81571428Y-36554819D02*
X81095238Y-36554819D01*
X81095238Y-36554819D02*
X81095238Y-35554819D01*
X81095238Y-35554819D02*
X81571428Y-35554819D01*
X82333333Y-36031009D02*
X82000000Y-36031009D01*
X82000000Y-36554819D02*
X82000000Y-35554819D01*
X82000000Y-35554819D02*
X82476190Y-35554819D01*
X83000000Y-35554819D02*
X83000000Y-35792914D01*
X82761905Y-35697676D02*
X83000000Y-35792914D01*
X83000000Y-35792914D02*
X83238095Y-35697676D01*
X82857143Y-35983390D02*
X83000000Y-35792914D01*
X83000000Y-35792914D02*
X83142857Y-35983390D01*
X83761905Y-35554819D02*
X83761905Y-35792914D01*
X83523810Y-35697676D02*
X83761905Y-35792914D01*
X83761905Y-35792914D02*
X84000000Y-35697676D01*
X83619048Y-35983390D02*
X83761905Y-35792914D01*
X83761905Y-35792914D02*
X83904762Y-35983390D01*
X64666666Y-29704819D02*
X64333333Y-29228628D01*
X64095238Y-29704819D02*
X64095238Y-28704819D01*
X64095238Y-28704819D02*
X64476190Y-28704819D01*
X64476190Y-28704819D02*
X64571428Y-28752438D01*
X64571428Y-28752438D02*
X64619047Y-28800057D01*
X64619047Y-28800057D02*
X64666666Y-28895295D01*
X64666666Y-28895295D02*
X64666666Y-29038152D01*
X64666666Y-29038152D02*
X64619047Y-29133390D01*
X64619047Y-29133390D02*
X64571428Y-29181009D01*
X64571428Y-29181009D02*
X64476190Y-29228628D01*
X64476190Y-29228628D02*
X64095238Y-29228628D01*
X65095238Y-29181009D02*
X65428571Y-29181009D01*
X65571428Y-29704819D02*
X65095238Y-29704819D01*
X65095238Y-29704819D02*
X65095238Y-28704819D01*
X65095238Y-28704819D02*
X65571428Y-28704819D01*
X66333333Y-29181009D02*
X66000000Y-29181009D01*
X66000000Y-29704819D02*
X66000000Y-28704819D01*
X66000000Y-28704819D02*
X66476190Y-28704819D01*
X67000000Y-28704819D02*
X67000000Y-28942914D01*
X66761905Y-28847676D02*
X67000000Y-28942914D01*
X67000000Y-28942914D02*
X67238095Y-28847676D01*
X66857143Y-29133390D02*
X67000000Y-28942914D01*
X67000000Y-28942914D02*
X67142857Y-29133390D01*
X67761905Y-28704819D02*
X67761905Y-28942914D01*
X67523810Y-28847676D02*
X67761905Y-28942914D01*
X67761905Y-28942914D02*
X68000000Y-28847676D01*
X67619048Y-29133390D02*
X67761905Y-28942914D01*
X67761905Y-28942914D02*
X67904762Y-29133390D01*
X123166666Y-29704819D02*
X122833333Y-29228628D01*
X122595238Y-29704819D02*
X122595238Y-28704819D01*
X122595238Y-28704819D02*
X122976190Y-28704819D01*
X122976190Y-28704819D02*
X123071428Y-28752438D01*
X123071428Y-28752438D02*
X123119047Y-28800057D01*
X123119047Y-28800057D02*
X123166666Y-28895295D01*
X123166666Y-28895295D02*
X123166666Y-29038152D01*
X123166666Y-29038152D02*
X123119047Y-29133390D01*
X123119047Y-29133390D02*
X123071428Y-29181009D01*
X123071428Y-29181009D02*
X122976190Y-29228628D01*
X122976190Y-29228628D02*
X122595238Y-29228628D01*
X123595238Y-29181009D02*
X123928571Y-29181009D01*
X124071428Y-29704819D02*
X123595238Y-29704819D01*
X123595238Y-29704819D02*
X123595238Y-28704819D01*
X123595238Y-28704819D02*
X124071428Y-28704819D01*
X124833333Y-29181009D02*
X124500000Y-29181009D01*
X124500000Y-29704819D02*
X124500000Y-28704819D01*
X124500000Y-28704819D02*
X124976190Y-28704819D01*
X125500000Y-28704819D02*
X125500000Y-28942914D01*
X125261905Y-28847676D02*
X125500000Y-28942914D01*
X125500000Y-28942914D02*
X125738095Y-28847676D01*
X125357143Y-29133390D02*
X125500000Y-28942914D01*
X125500000Y-28942914D02*
X125642857Y-29133390D01*
X126261905Y-28704819D02*
X126261905Y-28942914D01*
X126023810Y-28847676D02*
X126261905Y-28942914D01*
X126261905Y-28942914D02*
X126500000Y-28847676D01*
X126119048Y-29133390D02*
X126261905Y-28942914D01*
X126261905Y-28942914D02*
X126404762Y-29133390D01*
X104416666Y-24154819D02*
X104083333Y-23678628D01*
X103845238Y-24154819D02*
X103845238Y-23154819D01*
X103845238Y-23154819D02*
X104226190Y-23154819D01*
X104226190Y-23154819D02*
X104321428Y-23202438D01*
X104321428Y-23202438D02*
X104369047Y-23250057D01*
X104369047Y-23250057D02*
X104416666Y-23345295D01*
X104416666Y-23345295D02*
X104416666Y-23488152D01*
X104416666Y-23488152D02*
X104369047Y-23583390D01*
X104369047Y-23583390D02*
X104321428Y-23631009D01*
X104321428Y-23631009D02*
X104226190Y-23678628D01*
X104226190Y-23678628D02*
X103845238Y-23678628D01*
X104845238Y-23631009D02*
X105178571Y-23631009D01*
X105321428Y-24154819D02*
X104845238Y-24154819D01*
X104845238Y-24154819D02*
X104845238Y-23154819D01*
X104845238Y-23154819D02*
X105321428Y-23154819D01*
X106083333Y-23631009D02*
X105750000Y-23631009D01*
X105750000Y-24154819D02*
X105750000Y-23154819D01*
X105750000Y-23154819D02*
X106226190Y-23154819D01*
X106750000Y-23154819D02*
X106750000Y-23392914D01*
X106511905Y-23297676D02*
X106750000Y-23392914D01*
X106750000Y-23392914D02*
X106988095Y-23297676D01*
X106607143Y-23583390D02*
X106750000Y-23392914D01*
X106750000Y-23392914D02*
X106892857Y-23583390D01*
X107511905Y-23154819D02*
X107511905Y-23392914D01*
X107273810Y-23297676D02*
X107511905Y-23392914D01*
X107511905Y-23392914D02*
X107750000Y-23297676D01*
X107369048Y-23583390D02*
X107511905Y-23392914D01*
X107511905Y-23392914D02*
X107654762Y-23583390D01*
X123166666Y-37704819D02*
X122833333Y-37228628D01*
X122595238Y-37704819D02*
X122595238Y-36704819D01*
X122595238Y-36704819D02*
X122976190Y-36704819D01*
X122976190Y-36704819D02*
X123071428Y-36752438D01*
X123071428Y-36752438D02*
X123119047Y-36800057D01*
X123119047Y-36800057D02*
X123166666Y-36895295D01*
X123166666Y-36895295D02*
X123166666Y-37038152D01*
X123166666Y-37038152D02*
X123119047Y-37133390D01*
X123119047Y-37133390D02*
X123071428Y-37181009D01*
X123071428Y-37181009D02*
X122976190Y-37228628D01*
X122976190Y-37228628D02*
X122595238Y-37228628D01*
X123595238Y-37181009D02*
X123928571Y-37181009D01*
X124071428Y-37704819D02*
X123595238Y-37704819D01*
X123595238Y-37704819D02*
X123595238Y-36704819D01*
X123595238Y-36704819D02*
X124071428Y-36704819D01*
X124833333Y-37181009D02*
X124500000Y-37181009D01*
X124500000Y-37704819D02*
X124500000Y-36704819D01*
X124500000Y-36704819D02*
X124976190Y-36704819D01*
X125500000Y-36704819D02*
X125500000Y-36942914D01*
X125261905Y-36847676D02*
X125500000Y-36942914D01*
X125500000Y-36942914D02*
X125738095Y-36847676D01*
X125357143Y-37133390D02*
X125500000Y-36942914D01*
X125500000Y-36942914D02*
X125642857Y-37133390D01*
X126261905Y-36704819D02*
X126261905Y-36942914D01*
X126023810Y-36847676D02*
X126261905Y-36942914D01*
X126261905Y-36942914D02*
X126500000Y-36847676D01*
X126119048Y-37133390D02*
X126261905Y-36942914D01*
X126261905Y-36942914D02*
X126404762Y-37133390D01*
X64666666Y-37704819D02*
X64333333Y-37228628D01*
X64095238Y-37704819D02*
X64095238Y-36704819D01*
X64095238Y-36704819D02*
X64476190Y-36704819D01*
X64476190Y-36704819D02*
X64571428Y-36752438D01*
X64571428Y-36752438D02*
X64619047Y-36800057D01*
X64619047Y-36800057D02*
X64666666Y-36895295D01*
X64666666Y-36895295D02*
X64666666Y-37038152D01*
X64666666Y-37038152D02*
X64619047Y-37133390D01*
X64619047Y-37133390D02*
X64571428Y-37181009D01*
X64571428Y-37181009D02*
X64476190Y-37228628D01*
X64476190Y-37228628D02*
X64095238Y-37228628D01*
X65095238Y-37181009D02*
X65428571Y-37181009D01*
X65571428Y-37704819D02*
X65095238Y-37704819D01*
X65095238Y-37704819D02*
X65095238Y-36704819D01*
X65095238Y-36704819D02*
X65571428Y-36704819D01*
X66333333Y-37181009D02*
X66000000Y-37181009D01*
X66000000Y-37704819D02*
X66000000Y-36704819D01*
X66000000Y-36704819D02*
X66476190Y-36704819D01*
X67000000Y-36704819D02*
X67000000Y-36942914D01*
X66761905Y-36847676D02*
X67000000Y-36942914D01*
X67000000Y-36942914D02*
X67238095Y-36847676D01*
X66857143Y-37133390D02*
X67000000Y-36942914D01*
X67000000Y-36942914D02*
X67142857Y-37133390D01*
X67761905Y-36704819D02*
X67761905Y-36942914D01*
X67523810Y-36847676D02*
X67761905Y-36942914D01*
X67761905Y-36942914D02*
X68000000Y-36847676D01*
X67619048Y-37133390D02*
X67761905Y-36942914D01*
X67761905Y-36942914D02*
X67904762Y-37133390D01*
%TO.C,REF\u002A\u002A*%
D11*
X88910000Y-28750000D02*
X77600000Y-28750000D01*
X88910000Y-28750000D02*
X88910000Y-35250000D01*
X88910000Y-35250000D02*
X77600000Y-35250000D01*
X67750000Y-32000000D02*
G75*
G02*
X64250000Y-32000000I-1750000J0D01*
G01*
X64250000Y-32000000D02*
G75*
G02*
X67750000Y-32000000I1750000J0D01*
G01*
X126250000Y-32000000D02*
G75*
G02*
X122750000Y-32000000I-1750000J0D01*
G01*
X122750000Y-32000000D02*
G75*
G02*
X126250000Y-32000000I1750000J0D01*
G01*
X99640000Y-25890000D02*
X99640000Y-28400000D01*
X99640000Y-25890000D02*
X111860000Y-25890000D01*
X99640000Y-30700000D02*
X99640000Y-33300000D01*
X99640000Y-35600000D02*
X99640000Y-38110000D01*
X111860000Y-25890000D02*
X111860000Y-28400000D01*
X111860000Y-30700000D02*
X111860000Y-33300000D01*
X111860000Y-35600000D02*
X111860000Y-38110000D01*
X111860000Y-38110000D02*
X99640000Y-38110000D01*
X126250000Y-40000000D02*
G75*
G02*
X122750000Y-40000000I-1750000J0D01*
G01*
X122750000Y-40000000D02*
G75*
G02*
X126250000Y-40000000I1750000J0D01*
G01*
X67750000Y-40000000D02*
G75*
G02*
X64250000Y-40000000I-1750000J0D01*
G01*
X64250000Y-40000000D02*
G75*
G02*
X67750000Y-40000000I1750000J0D01*
G01*
D12*
X58401052Y-45009605D02*
X58401052Y-49020131D01*
X57598947Y-49020131D01*
X57598947Y-45009605D01*
X58401052Y-45009605D01*
G36*
X58401052Y-49020131D02*
G01*
X57598947Y-49020131D01*
X57598947Y-45009605D01*
X58401052Y-45009605D01*
X58401052Y-49020131D01*
G37*
X57598947Y-22567368D02*
X57598947Y-20963158D01*
X58401052Y-20963158D01*
X58401052Y-22567368D01*
X60005263Y-22567368D01*
X60005263Y-23369473D01*
X58401052Y-23369473D01*
X58401052Y-24973684D01*
X57599271Y-24973684D01*
X57594932Y-24175756D01*
X57590592Y-23377829D01*
X56792664Y-23373489D01*
X55994737Y-23369149D01*
X55994737Y-22567368D01*
X57598947Y-22567368D01*
G36*
X58401052Y-22567368D02*
G01*
X60005263Y-22567368D01*
X60005263Y-23369473D01*
X58401052Y-23369473D01*
X58401052Y-24973684D01*
X57599271Y-24973684D01*
X57594932Y-24175756D01*
X57590592Y-23377829D01*
X56792664Y-23373489D01*
X55994737Y-23369149D01*
X55994737Y-22567368D01*
X57598947Y-22567368D01*
X57598947Y-20963158D01*
X58401052Y-20963158D01*
X58401052Y-22567368D01*
G37*
X53993691Y-22807098D02*
X53999284Y-22662021D01*
X54004571Y-22591245D01*
X54053134Y-22234847D01*
X54131954Y-21885073D01*
X54239815Y-21544912D01*
X54375500Y-21217351D01*
X54537794Y-20905377D01*
X54725483Y-20611978D01*
X54905024Y-20378289D01*
X55147613Y-20113662D01*
X55412023Y-19873864D01*
X55696607Y-19659933D01*
X55999718Y-19472904D01*
X56319708Y-19313812D01*
X56654931Y-19183693D01*
X56938900Y-19099629D01*
X57277468Y-19028182D01*
X57625402Y-18984055D01*
X57976778Y-18967370D01*
X58325667Y-18978250D01*
X58666144Y-19016816D01*
X58892136Y-19059426D01*
X59249292Y-19154839D01*
X59590980Y-19278984D01*
X59915956Y-19431025D01*
X60222976Y-19610124D01*
X60510794Y-19815445D01*
X60778166Y-20046149D01*
X61023846Y-20301401D01*
X61246591Y-20580363D01*
X61328752Y-20698047D01*
X61515956Y-21006100D01*
X61672927Y-21327690D01*
X61799931Y-21663516D01*
X61897236Y-22014278D01*
X61961371Y-22354924D01*
X61971881Y-22440562D01*
X61981529Y-22546332D01*
X61989995Y-22665139D01*
X61996960Y-22789888D01*
X62002104Y-22913484D01*
X62005108Y-23028832D01*
X62005652Y-23128839D01*
X62003418Y-23206408D01*
X62001022Y-23235789D01*
X61996454Y-23277268D01*
X61989525Y-23341739D01*
X61981332Y-23418954D01*
X61975993Y-23469737D01*
X61925430Y-23799945D01*
X61843842Y-24130610D01*
X61733217Y-24456966D01*
X61595540Y-24774244D01*
X61432798Y-25077675D01*
X61246976Y-25362494D01*
X61116302Y-25533487D01*
X61022496Y-25642532D01*
X60911172Y-25761963D01*
X60791331Y-25882744D01*
X60671975Y-25995841D01*
X60562105Y-26092219D01*
X60548355Y-26103567D01*
X60284697Y-26298654D01*
X59997747Y-26472628D01*
X59691398Y-26623816D01*
X59369542Y-26750545D01*
X59036073Y-26851143D01*
X58694882Y-26923939D01*
X58605756Y-26938051D01*
X58401052Y-26968137D01*
X58401052Y-30065514D01*
X58401093Y-30456918D01*
X58401220Y-30816110D01*
X58401441Y-31144299D01*
X58401764Y-31442693D01*
X58402198Y-31712501D01*
X58402752Y-31954932D01*
X58403432Y-32171195D01*
X58404247Y-32362498D01*
X58405205Y-32530051D01*
X58406315Y-32675062D01*
X58407584Y-32798740D01*
X58409020Y-32902293D01*
X58410633Y-32986931D01*
X58412429Y-33053862D01*
X58414418Y-33104296D01*
X58416606Y-33139440D01*
X58419003Y-33160504D01*
X58421617Y-33168696D01*
X58421941Y-33168870D01*
X58633138Y-33236257D01*
X58817140Y-33310769D01*
X58979953Y-33395704D01*
X59127583Y-33494360D01*
X59266035Y-33610035D01*
X59320740Y-33662352D01*
X59479474Y-33842125D01*
X59610969Y-34038061D01*
X59715220Y-34247108D01*
X59792223Y-34466218D01*
X59841974Y-34692341D01*
X59864467Y-34922427D01*
X59859700Y-35153427D01*
X59827667Y-35382291D01*
X59768364Y-35605970D01*
X59681786Y-35821413D01*
X59567930Y-36025572D01*
X59426791Y-36215396D01*
X59324568Y-36325554D01*
X59140584Y-36487705D01*
X58946599Y-36619024D01*
X58739700Y-36721341D01*
X58628108Y-36763001D01*
X58386820Y-36827572D01*
X58143736Y-36861093D01*
X58005772Y-36862978D01*
X58005772Y-26093289D01*
X58329034Y-26079094D01*
X58637764Y-26035986D01*
X58935476Y-25963184D01*
X59225683Y-25859907D01*
X59395329Y-25784111D01*
X59671197Y-25633425D01*
X59926678Y-25457173D01*
X60160621Y-25257119D01*
X60371872Y-25035031D01*
X60559278Y-24792673D01*
X60721687Y-24531812D01*
X60857945Y-24254212D01*
X60966901Y-23961640D01*
X61047400Y-23655860D01*
X61098292Y-23338640D01*
X61113672Y-23152237D01*
X61117080Y-23091976D01*
X61120261Y-23039336D01*
X61121630Y-23018552D01*
X61121545Y-22986800D01*
X61119234Y-22929310D01*
X61115079Y-22853664D01*
X61109459Y-22767445D01*
X61108101Y-22748320D01*
X61068668Y-22420261D01*
X60999363Y-22105470D01*
X60901369Y-21805308D01*
X60775868Y-21521140D01*
X60624043Y-21254328D01*
X60447078Y-21006235D01*
X60246155Y-20778224D01*
X60022457Y-20571659D01*
X59777166Y-20387901D01*
X59511467Y-20228314D01*
X59226541Y-20094262D01*
X58923572Y-19987106D01*
X58651710Y-19917972D01*
X58526293Y-19896808D01*
X58377016Y-19880117D01*
X58213187Y-19868269D01*
X58044114Y-19861637D01*
X57879105Y-19860591D01*
X57727468Y-19865503D01*
X57603404Y-19876133D01*
X57276291Y-19932157D01*
X56964294Y-20017647D01*
X56668281Y-20132074D01*
X56389120Y-20274910D01*
X56127680Y-20445624D01*
X55884829Y-20643688D01*
X55661434Y-20868574D01*
X55458365Y-21119750D01*
X55380971Y-21230526D01*
X55229624Y-21486107D01*
X55104468Y-21759522D01*
X55005936Y-22047317D01*
X54934457Y-22346036D01*
X54890461Y-22652224D01*
X54874379Y-22962426D01*
X54886641Y-23273186D01*
X54927676Y-23581050D01*
X54997916Y-23882561D01*
X55035566Y-24004473D01*
X55151235Y-24301389D01*
X55294244Y-24580259D01*
X55463034Y-24839821D01*
X55656043Y-25078815D01*
X55871713Y-25295981D01*
X56108484Y-25490058D01*
X56364795Y-25659785D01*
X56639086Y-25803902D01*
X56929799Y-25921148D01*
X57235372Y-26010262D01*
X57554247Y-26069983D01*
X57598509Y-26075760D01*
X57667196Y-26082057D01*
X57758909Y-26087350D01*
X57863259Y-26091193D01*
X57969854Y-26093139D01*
X58005772Y-26093289D01*
X58005772Y-36862978D01*
X57901734Y-36864400D01*
X57663691Y-36838327D01*
X57432487Y-36783708D01*
X57210998Y-36701377D01*
X57002104Y-36592169D01*
X56808682Y-36456919D01*
X56633611Y-36296461D01*
X56506732Y-36147930D01*
X56374097Y-35947165D01*
X56269858Y-35732008D01*
X56194097Y-35505829D01*
X56146900Y-35271998D01*
X56128350Y-35033885D01*
X56138532Y-34794861D01*
X56177530Y-34558295D01*
X56245428Y-34327558D01*
X56342311Y-34106020D01*
X56451060Y-33922171D01*
X56492026Y-33866988D01*
X56548313Y-33798715D01*
X56611289Y-33727569D01*
X56652168Y-33684163D01*
X56808426Y-33539658D01*
X56975985Y-33418159D01*
X57159929Y-33316834D01*
X57365337Y-33232853D01*
X57578059Y-33168366D01*
X57580698Y-33161686D01*
X57583119Y-33142281D01*
X57585332Y-33108943D01*
X57587343Y-33060463D01*
X57589161Y-32995634D01*
X57590795Y-32913246D01*
X57592252Y-32812090D01*
X57593540Y-32690959D01*
X57594668Y-32548644D01*
X57595644Y-32383936D01*
X57596476Y-32195627D01*
X57597172Y-31982508D01*
X57597740Y-31743371D01*
X57598188Y-31477007D01*
X57598525Y-31182208D01*
X57598758Y-30857765D01*
X57598896Y-30502469D01*
X57598947Y-30115113D01*
X57598947Y-26965518D01*
X57494506Y-26954052D01*
X57284952Y-26923424D01*
X57059964Y-26877039D01*
X56831703Y-26817997D01*
X56612325Y-26749402D01*
X56439160Y-26684777D01*
X56109845Y-26532882D01*
X55800007Y-26354472D01*
X55510720Y-26150929D01*
X55243055Y-25923636D01*
X54998086Y-25673975D01*
X54776885Y-25403328D01*
X54580525Y-25113077D01*
X54410079Y-24804604D01*
X54266620Y-24479292D01*
X54151219Y-24138523D01*
X54064951Y-23783678D01*
X54029948Y-23580574D01*
X54014983Y-23452611D01*
X54003620Y-23301339D01*
X53996114Y-23136700D01*
X53992719Y-22968639D01*
X53993691Y-22807098D01*
G36*
X58325667Y-18978250D02*
G01*
X58666144Y-19016816D01*
X58892136Y-19059426D01*
X59249292Y-19154839D01*
X59590980Y-19278984D01*
X59915956Y-19431025D01*
X60222976Y-19610124D01*
X60510794Y-19815445D01*
X60778166Y-20046149D01*
X61023846Y-20301401D01*
X61246591Y-20580363D01*
X61328752Y-20698047D01*
X61515956Y-21006100D01*
X61672927Y-21327690D01*
X61799931Y-21663516D01*
X61897236Y-22014278D01*
X61961371Y-22354924D01*
X61971881Y-22440562D01*
X61981529Y-22546332D01*
X61989995Y-22665139D01*
X61996960Y-22789888D01*
X62002104Y-22913484D01*
X62005108Y-23028832D01*
X62005652Y-23128839D01*
X62003418Y-23206408D01*
X62001022Y-23235789D01*
X61996454Y-23277268D01*
X61989525Y-23341739D01*
X61981332Y-23418954D01*
X61975993Y-23469737D01*
X61925430Y-23799945D01*
X61843842Y-24130610D01*
X61733217Y-24456966D01*
X61595540Y-24774244D01*
X61432798Y-25077675D01*
X61246976Y-25362494D01*
X61116302Y-25533487D01*
X61022496Y-25642532D01*
X60911172Y-25761963D01*
X60791331Y-25882744D01*
X60671975Y-25995841D01*
X60562105Y-26092219D01*
X60548355Y-26103567D01*
X60284697Y-26298654D01*
X59997747Y-26472628D01*
X59691398Y-26623816D01*
X59369542Y-26750545D01*
X59036073Y-26851143D01*
X58694882Y-26923939D01*
X58605756Y-26938051D01*
X58401052Y-26968137D01*
X58401052Y-30065514D01*
X58401093Y-30456918D01*
X58401220Y-30816110D01*
X58401441Y-31144299D01*
X58401764Y-31442693D01*
X58402198Y-31712501D01*
X58402752Y-31954932D01*
X58403432Y-32171195D01*
X58404247Y-32362498D01*
X58405205Y-32530051D01*
X58406315Y-32675062D01*
X58407584Y-32798740D01*
X58409020Y-32902293D01*
X58410633Y-32986931D01*
X58412429Y-33053862D01*
X58414418Y-33104296D01*
X58416606Y-33139440D01*
X58419003Y-33160504D01*
X58421617Y-33168696D01*
X58421941Y-33168870D01*
X58633138Y-33236257D01*
X58817140Y-33310769D01*
X58979953Y-33395704D01*
X59127583Y-33494360D01*
X59266035Y-33610035D01*
X59320740Y-33662352D01*
X59479474Y-33842125D01*
X59610969Y-34038061D01*
X59715220Y-34247108D01*
X59792223Y-34466218D01*
X59841974Y-34692341D01*
X59864467Y-34922427D01*
X59859700Y-35153427D01*
X59827667Y-35382291D01*
X59768364Y-35605970D01*
X59681786Y-35821413D01*
X59567930Y-36025572D01*
X59426791Y-36215396D01*
X59324568Y-36325554D01*
X59140584Y-36487705D01*
X58946599Y-36619024D01*
X58739700Y-36721341D01*
X58628108Y-36763001D01*
X58386820Y-36827572D01*
X58143736Y-36861093D01*
X58005772Y-36862978D01*
X57901734Y-36864400D01*
X57663691Y-36838327D01*
X57432487Y-36783708D01*
X57210998Y-36701377D01*
X57002104Y-36592169D01*
X56808682Y-36456919D01*
X56633611Y-36296461D01*
X56506732Y-36147930D01*
X56374097Y-35947165D01*
X56269858Y-35732008D01*
X56194097Y-35505829D01*
X56146900Y-35271998D01*
X56128350Y-35033885D01*
X56138532Y-34794861D01*
X56177530Y-34558295D01*
X56245428Y-34327558D01*
X56342311Y-34106020D01*
X56451060Y-33922171D01*
X56492026Y-33866988D01*
X56548313Y-33798715D01*
X56611289Y-33727569D01*
X56652168Y-33684163D01*
X56808426Y-33539658D01*
X56975985Y-33418159D01*
X57159929Y-33316834D01*
X57365337Y-33232853D01*
X57578059Y-33168366D01*
X57580698Y-33161686D01*
X57583119Y-33142281D01*
X57585332Y-33108943D01*
X57587343Y-33060463D01*
X57589161Y-32995634D01*
X57590795Y-32913246D01*
X57592252Y-32812090D01*
X57593540Y-32690959D01*
X57594668Y-32548644D01*
X57595644Y-32383936D01*
X57596476Y-32195627D01*
X57597172Y-31982508D01*
X57597740Y-31743371D01*
X57598188Y-31477007D01*
X57598525Y-31182208D01*
X57598758Y-30857765D01*
X57598896Y-30502469D01*
X57598947Y-30115113D01*
X57598947Y-26965518D01*
X57494506Y-26954052D01*
X57284952Y-26923424D01*
X57059964Y-26877039D01*
X56831703Y-26817997D01*
X56612325Y-26749402D01*
X56439160Y-26684777D01*
X56109845Y-26532882D01*
X55800007Y-26354472D01*
X55510720Y-26150929D01*
X55243055Y-25923636D01*
X54998086Y-25673975D01*
X54776885Y-25403328D01*
X54580525Y-25113077D01*
X54410079Y-24804604D01*
X54266620Y-24479292D01*
X54151219Y-24138523D01*
X54064951Y-23783678D01*
X54029948Y-23580574D01*
X54014983Y-23452611D01*
X54003620Y-23301339D01*
X53996114Y-23136700D01*
X53992719Y-22968639D01*
X53992756Y-22962426D01*
X54874379Y-22962426D01*
X54886641Y-23273186D01*
X54927676Y-23581050D01*
X54997916Y-23882561D01*
X55035566Y-24004473D01*
X55151235Y-24301389D01*
X55294244Y-24580259D01*
X55463034Y-24839821D01*
X55656043Y-25078815D01*
X55871713Y-25295981D01*
X56108484Y-25490058D01*
X56364795Y-25659785D01*
X56639086Y-25803902D01*
X56929799Y-25921148D01*
X57235372Y-26010262D01*
X57554247Y-26069983D01*
X57598509Y-26075760D01*
X57667196Y-26082057D01*
X57758909Y-26087350D01*
X57863259Y-26091193D01*
X57969854Y-26093139D01*
X58005772Y-26093289D01*
X58329034Y-26079094D01*
X58637764Y-26035986D01*
X58935476Y-25963184D01*
X59225683Y-25859907D01*
X59395329Y-25784111D01*
X59671197Y-25633425D01*
X59926678Y-25457173D01*
X60160621Y-25257119D01*
X60371872Y-25035031D01*
X60559278Y-24792673D01*
X60721687Y-24531812D01*
X60857945Y-24254212D01*
X60966901Y-23961640D01*
X61047400Y-23655860D01*
X61098292Y-23338640D01*
X61113672Y-23152237D01*
X61117080Y-23091976D01*
X61120261Y-23039336D01*
X61121630Y-23018552D01*
X61121545Y-22986800D01*
X61119234Y-22929310D01*
X61115079Y-22853664D01*
X61109459Y-22767445D01*
X61108101Y-22748320D01*
X61068668Y-22420261D01*
X60999363Y-22105470D01*
X60901369Y-21805308D01*
X60775868Y-21521140D01*
X60624043Y-21254328D01*
X60447078Y-21006235D01*
X60246155Y-20778224D01*
X60022457Y-20571659D01*
X59777166Y-20387901D01*
X59511467Y-20228314D01*
X59226541Y-20094262D01*
X58923572Y-19987106D01*
X58651710Y-19917972D01*
X58526293Y-19896808D01*
X58377016Y-19880117D01*
X58213187Y-19868269D01*
X58044114Y-19861637D01*
X57879105Y-19860591D01*
X57727468Y-19865503D01*
X57603404Y-19876133D01*
X57276291Y-19932157D01*
X56964294Y-20017647D01*
X56668281Y-20132074D01*
X56389120Y-20274910D01*
X56127680Y-20445624D01*
X55884829Y-20643688D01*
X55661434Y-20868574D01*
X55458365Y-21119750D01*
X55380971Y-21230526D01*
X55229624Y-21486107D01*
X55104468Y-21759522D01*
X55005936Y-22047317D01*
X54934457Y-22346036D01*
X54890461Y-22652224D01*
X54874379Y-22962426D01*
X53992756Y-22962426D01*
X53993691Y-22807098D01*
X53999284Y-22662021D01*
X54004571Y-22591245D01*
X54053134Y-22234847D01*
X54131954Y-21885073D01*
X54239815Y-21544912D01*
X54375500Y-21217351D01*
X54537794Y-20905377D01*
X54725483Y-20611978D01*
X54905024Y-20378289D01*
X55147613Y-20113662D01*
X55412023Y-19873864D01*
X55696607Y-19659933D01*
X55999718Y-19472904D01*
X56319708Y-19313812D01*
X56654931Y-19183693D01*
X56938900Y-19099629D01*
X57277468Y-19028182D01*
X57625402Y-18984055D01*
X57976778Y-18967370D01*
X58325667Y-18978250D01*
G37*
X54011658Y-34622239D02*
X54059648Y-34272501D01*
X54139288Y-33927378D01*
X54226499Y-33654802D01*
X54367089Y-33314699D01*
X54536887Y-32990073D01*
X54734695Y-32682532D01*
X54959312Y-32393683D01*
X55209541Y-32125133D01*
X55484182Y-31878491D01*
X55645221Y-31752746D01*
X55705114Y-31708288D01*
X55946011Y-32054356D01*
X56011834Y-32149663D01*
X56070800Y-32236474D01*
X56120333Y-32310878D01*
X56157856Y-32368964D01*
X56180792Y-32406820D01*
X56186908Y-32419979D01*
X56174426Y-32439250D01*
X56141729Y-32470851D01*
X56096682Y-32507327D01*
X55870781Y-32697208D01*
X55661822Y-32913226D01*
X55472285Y-33151387D01*
X55304653Y-33407694D01*
X55161407Y-33678156D01*
X55045028Y-33958775D01*
X54957999Y-34245559D01*
X54925937Y-34391737D01*
X54881443Y-34711570D01*
X54869288Y-35030568D01*
X54888786Y-35346463D01*
X54939250Y-35656983D01*
X55019992Y-35959859D01*
X55130326Y-36252821D01*
X55269566Y-36533598D01*
X55437023Y-36799920D01*
X55632013Y-37049517D01*
X55777425Y-37205969D01*
X56019368Y-37426268D01*
X56277247Y-37617223D01*
X56551184Y-37778894D01*
X56841301Y-37911345D01*
X57147719Y-38014635D01*
X57470561Y-38088828D01*
X57548821Y-38102046D01*
X57677569Y-38117124D01*
X57828277Y-38126330D01*
X57990213Y-38129659D01*
X58152644Y-38127107D01*
X58304838Y-38118671D01*
X58436062Y-38104345D01*
X58448903Y-38102387D01*
X58771444Y-38035442D01*
X59080841Y-37939046D01*
X59375401Y-37814269D01*
X59653428Y-37662180D01*
X59913229Y-37483849D01*
X60153108Y-37280347D01*
X60371372Y-37052743D01*
X60566325Y-36802107D01*
X60609954Y-36737894D01*
X60774875Y-36459151D01*
X60909419Y-36168881D01*
X61013278Y-35869333D01*
X61086143Y-35562756D01*
X61127708Y-35251398D01*
X61137664Y-34937509D01*
X61115703Y-34623335D01*
X61061518Y-34311126D01*
X60981600Y-34023486D01*
X60864397Y-33720837D01*
X60718290Y-33433900D01*
X60544558Y-33164518D01*
X60344477Y-32914532D01*
X60119326Y-32685786D01*
X59958650Y-32548173D01*
X59803420Y-32424048D01*
X59859274Y-32345938D01*
X59886539Y-32307386D01*
X59928711Y-32247233D01*
X59981681Y-32171364D01*
X60041339Y-32085665D01*
X60103397Y-31996283D01*
X60161534Y-31913148D01*
X60213430Y-31840301D01*
X60256045Y-31781900D01*
X60286334Y-31742103D01*
X60301257Y-31725071D01*
X60302004Y-31724737D01*
X60324670Y-31735410D01*
X60367408Y-31764916D01*
X60425673Y-31809487D01*
X60494918Y-31865353D01*
X60570596Y-31928746D01*
X60648163Y-31995896D01*
X60723070Y-32063033D01*
X60790773Y-32126390D01*
X60815133Y-32150142D01*
X61065909Y-32421042D01*
X61288124Y-32708731D01*
X61481244Y-33011927D01*
X61644731Y-33329346D01*
X61778049Y-33659705D01*
X61880660Y-34001721D01*
X61952029Y-34354110D01*
X61991618Y-34715590D01*
X62000143Y-34983289D01*
X61988334Y-35323863D01*
X61952189Y-35646072D01*
X61890315Y-35955851D01*
X61801322Y-36259135D01*
X61683819Y-36561857D01*
X61576129Y-36792132D01*
X61399165Y-37109137D01*
X61195292Y-37407054D01*
X60966034Y-37684346D01*
X60712916Y-37939476D01*
X60437466Y-38170904D01*
X60141207Y-38377095D01*
X59825797Y-38556442D01*
X59497655Y-38706736D01*
X59164681Y-38824983D01*
X58822707Y-38912549D01*
X58634050Y-38947363D01*
X58400920Y-38984838D01*
X58409408Y-43029408D01*
X58526381Y-43042035D01*
X58809582Y-43085776D01*
X59101752Y-43155520D01*
X59394938Y-43248452D01*
X59681184Y-43361755D01*
X59952534Y-43492615D01*
X60189079Y-43630503D01*
X60376848Y-43760356D01*
X60566687Y-43909010D01*
X60751127Y-44069784D01*
X60922698Y-44235999D01*
X61073929Y-44400975D01*
X61138624Y-44479690D01*
X61353957Y-44779154D01*
X61538490Y-45091580D01*
X61692200Y-45416908D01*
X61815067Y-45755077D01*
X61907069Y-46106027D01*
X61968185Y-46469698D01*
X61998393Y-46846030D01*
X62000727Y-46922960D01*
X62002543Y-47025043D01*
X62003407Y-47120176D01*
X62003318Y-47201411D01*
X62002277Y-47261797D01*
X62000741Y-47290592D01*
X61975297Y-47517141D01*
X61946069Y-47718711D01*
X61911394Y-47903677D01*
X61869606Y-48080414D01*
X61819043Y-48257297D01*
X61791613Y-48343355D01*
X61665133Y-48676201D01*
X61510203Y-48992855D01*
X61328337Y-49291925D01*
X61121048Y-49572024D01*
X60889850Y-49831761D01*
X60636256Y-50069747D01*
X60361782Y-50284593D01*
X60067939Y-50474908D01*
X59756242Y-50639303D01*
X59428205Y-50776389D01*
X59085341Y-50884776D01*
X58999079Y-50906838D01*
X58851295Y-50941250D01*
X58718663Y-50967935D01*
X58593101Y-50987779D01*
X58466528Y-51001669D01*
X58330863Y-51010492D01*
X58178023Y-51015135D01*
X58000000Y-51016485D01*
X57991645Y-51016422D01*
X57991645Y-50139737D01*
X58323593Y-50124204D01*
X58645297Y-50077901D01*
X58955378Y-50001274D01*
X59252459Y-49894769D01*
X59535160Y-49758829D01*
X59802105Y-49593901D01*
X59899438Y-49523484D01*
X60140069Y-49321289D01*
X60357076Y-49096538D01*
X60549268Y-48851449D01*
X60715455Y-48588237D01*
X60854447Y-48309120D01*
X60965053Y-48016315D01*
X61046083Y-47712039D01*
X61096346Y-47398509D01*
X61107375Y-47273881D01*
X61112724Y-47195740D01*
X61117402Y-47127454D01*
X61120831Y-47077475D01*
X61122264Y-47056644D01*
X61121942Y-47028278D01*
X61119452Y-46973748D01*
X61115183Y-46900215D01*
X61109525Y-46814839D01*
X61107775Y-46790211D01*
X61068560Y-46465335D01*
X60999548Y-46153334D01*
X60902131Y-45855600D01*
X60777701Y-45573523D01*
X60627648Y-45308493D01*
X60453364Y-45061902D01*
X60256239Y-44835141D01*
X60037666Y-44629599D01*
X59799035Y-44446669D01*
X59541738Y-44287739D01*
X59267165Y-44154202D01*
X58976708Y-44047449D01*
X58671759Y-43968869D01*
X58353708Y-43919853D01*
X58225592Y-43908997D01*
X57894640Y-43902791D01*
X57571990Y-43927360D01*
X57259297Y-43981786D01*
X56958217Y-44065149D01*
X56670404Y-44176532D01*
X56397513Y-44315014D01*
X56141201Y-44479679D01*
X55903122Y-44669607D01*
X55684931Y-44883879D01*
X55488284Y-45121577D01*
X55314836Y-45381781D01*
X55203295Y-45586467D01*
X55077042Y-45877325D01*
X54980986Y-46179485D01*
X54915148Y-46489887D01*
X54879548Y-46805469D01*
X54874208Y-47123169D01*
X54899147Y-47439926D01*
X54954387Y-47752678D01*
X55039947Y-48058363D01*
X55155850Y-48353920D01*
X55184209Y-48414755D01*
X55335790Y-48693318D01*
X55512278Y-48950584D01*
X55712015Y-49185532D01*
X55933343Y-49397144D01*
X56174605Y-49584402D01*
X56434142Y-49746287D01*
X56710296Y-49881780D01*
X57001411Y-49989863D01*
X57305827Y-50069516D01*
X57621887Y-50119722D01*
X57947932Y-50139461D01*
X57991645Y-50139737D01*
X57991645Y-51016422D01*
X57822139Y-51015133D01*
X57669471Y-51010505D01*
X57533854Y-51001748D01*
X57407148Y-50988007D01*
X57281212Y-50968426D01*
X57147906Y-50942152D01*
X57022434Y-50913851D01*
X56674388Y-50815338D01*
X56341301Y-50687672D01*
X56024533Y-50532226D01*
X55725443Y-50350375D01*
X55445389Y-50143495D01*
X55185731Y-49912959D01*
X54947828Y-49660143D01*
X54733038Y-49386421D01*
X54542721Y-49093168D01*
X54378237Y-48781758D01*
X54240943Y-48453566D01*
X54132199Y-48109968D01*
X54092933Y-47950658D01*
X54063253Y-47813349D01*
X54040281Y-47691821D01*
X54023224Y-47578157D01*
X54011288Y-47464436D01*
X54003679Y-47342743D01*
X53999603Y-47205157D01*
X53998265Y-47043761D01*
X53998258Y-47006513D01*
X53999879Y-46827518D01*
X54005002Y-46673510D01*
X54014506Y-46536158D01*
X54029269Y-46407133D01*
X54050172Y-46278103D01*
X54078093Y-46140737D01*
X54099564Y-46046669D01*
X54191978Y-45720384D01*
X54313375Y-45399060D01*
X54460978Y-45088579D01*
X54632007Y-44794823D01*
X54811657Y-44539193D01*
X54911241Y-44417594D01*
X55028588Y-44286724D01*
X55155266Y-44155249D01*
X55282840Y-44031836D01*
X55402878Y-43925152D01*
X55434934Y-43898694D01*
X55707916Y-43697858D01*
X56001092Y-43519362D01*
X56309783Y-43365234D01*
X56629312Y-43237502D01*
X56955002Y-43138193D01*
X57282174Y-43069336D01*
X57381710Y-43054683D01*
X57451737Y-43045117D01*
X57512759Y-43036212D01*
X57554275Y-43029516D01*
X57561349Y-43028171D01*
X57598947Y-43020416D01*
X57598947Y-38977105D01*
X57559335Y-38977105D01*
X57516183Y-38973590D01*
X57447882Y-38963962D01*
X57361856Y-38949600D01*
X57265528Y-38931878D01*
X57166322Y-38912175D01*
X57071659Y-38891868D01*
X56988964Y-38872333D01*
X56974279Y-38868579D01*
X56644107Y-38765821D01*
X56321942Y-38632031D01*
X56010642Y-38469198D01*
X55713065Y-38279312D01*
X55432070Y-38064363D01*
X55170515Y-37826341D01*
X54931258Y-37567235D01*
X54728459Y-37305124D01*
X54534851Y-37002811D01*
X54370315Y-36686370D01*
X54235174Y-36358144D01*
X54129749Y-36020477D01*
X54054363Y-35675710D01*
X54009337Y-35326186D01*
X53994995Y-34974248D01*
X54011658Y-34622239D01*
G36*
X55946011Y-32054356D02*
G01*
X56011834Y-32149663D01*
X56070800Y-32236474D01*
X56120333Y-32310878D01*
X56157856Y-32368964D01*
X56180792Y-32406820D01*
X56186908Y-32419979D01*
X56174426Y-32439250D01*
X56141729Y-32470851D01*
X56096682Y-32507327D01*
X55870781Y-32697208D01*
X55661822Y-32913226D01*
X55472285Y-33151387D01*
X55304653Y-33407694D01*
X55161407Y-33678156D01*
X55045028Y-33958775D01*
X54957999Y-34245559D01*
X54925937Y-34391737D01*
X54881443Y-34711570D01*
X54869288Y-35030568D01*
X54888786Y-35346463D01*
X54939250Y-35656983D01*
X55019992Y-35959859D01*
X55130326Y-36252821D01*
X55269566Y-36533598D01*
X55437023Y-36799920D01*
X55632013Y-37049517D01*
X55777425Y-37205969D01*
X56019368Y-37426268D01*
X56277247Y-37617223D01*
X56551184Y-37778894D01*
X56841301Y-37911345D01*
X57147719Y-38014635D01*
X57470561Y-38088828D01*
X57548821Y-38102046D01*
X57677569Y-38117124D01*
X57828277Y-38126330D01*
X57990213Y-38129659D01*
X58152644Y-38127107D01*
X58304838Y-38118671D01*
X58436062Y-38104345D01*
X58448903Y-38102387D01*
X58771444Y-38035442D01*
X59080841Y-37939046D01*
X59375401Y-37814269D01*
X59653428Y-37662180D01*
X59913229Y-37483849D01*
X60153108Y-37280347D01*
X60371372Y-37052743D01*
X60566325Y-36802107D01*
X60609954Y-36737894D01*
X60774875Y-36459151D01*
X60909419Y-36168881D01*
X61013278Y-35869333D01*
X61086143Y-35562756D01*
X61127708Y-35251398D01*
X61137664Y-34937509D01*
X61115703Y-34623335D01*
X61061518Y-34311126D01*
X60981600Y-34023486D01*
X60864397Y-33720837D01*
X60718290Y-33433900D01*
X60544558Y-33164518D01*
X60344477Y-32914532D01*
X60119326Y-32685786D01*
X59958650Y-32548173D01*
X59803420Y-32424048D01*
X59859274Y-32345938D01*
X59886539Y-32307386D01*
X59928711Y-32247233D01*
X59981681Y-32171364D01*
X60041339Y-32085665D01*
X60103397Y-31996283D01*
X60161534Y-31913148D01*
X60213430Y-31840301D01*
X60256045Y-31781900D01*
X60286334Y-31742103D01*
X60301257Y-31725071D01*
X60302004Y-31724737D01*
X60324670Y-31735410D01*
X60367408Y-31764916D01*
X60425673Y-31809487D01*
X60494918Y-31865353D01*
X60570596Y-31928746D01*
X60648163Y-31995896D01*
X60723070Y-32063033D01*
X60790773Y-32126390D01*
X60815133Y-32150142D01*
X61065909Y-32421042D01*
X61288124Y-32708731D01*
X61481244Y-33011927D01*
X61644731Y-33329346D01*
X61778049Y-33659705D01*
X61880660Y-34001721D01*
X61952029Y-34354110D01*
X61991618Y-34715590D01*
X62000143Y-34983289D01*
X61988334Y-35323863D01*
X61952189Y-35646072D01*
X61890315Y-35955851D01*
X61801322Y-36259135D01*
X61683819Y-36561857D01*
X61576129Y-36792132D01*
X61399165Y-37109137D01*
X61195292Y-37407054D01*
X60966034Y-37684346D01*
X60712916Y-37939476D01*
X60437466Y-38170904D01*
X60141207Y-38377095D01*
X59825797Y-38556442D01*
X59497655Y-38706736D01*
X59164681Y-38824983D01*
X58822707Y-38912549D01*
X58634050Y-38947363D01*
X58400920Y-38984838D01*
X58409408Y-43029408D01*
X58526381Y-43042035D01*
X58809582Y-43085776D01*
X59101752Y-43155520D01*
X59394938Y-43248452D01*
X59681184Y-43361755D01*
X59952534Y-43492615D01*
X60189079Y-43630503D01*
X60376848Y-43760356D01*
X60566687Y-43909010D01*
X60751127Y-44069784D01*
X60922698Y-44235999D01*
X61073929Y-44400975D01*
X61138624Y-44479690D01*
X61353957Y-44779154D01*
X61538490Y-45091580D01*
X61692200Y-45416908D01*
X61815067Y-45755077D01*
X61907069Y-46106027D01*
X61968185Y-46469698D01*
X61998393Y-46846030D01*
X62000727Y-46922960D01*
X62002543Y-47025043D01*
X62003407Y-47120176D01*
X62003318Y-47201411D01*
X62002277Y-47261797D01*
X62000741Y-47290592D01*
X61975297Y-47517141D01*
X61946069Y-47718711D01*
X61911394Y-47903677D01*
X61869606Y-48080414D01*
X61819043Y-48257297D01*
X61791613Y-48343355D01*
X61665133Y-48676201D01*
X61510203Y-48992855D01*
X61328337Y-49291925D01*
X61121048Y-49572024D01*
X60889850Y-49831761D01*
X60636256Y-50069747D01*
X60361782Y-50284593D01*
X60067939Y-50474908D01*
X59756242Y-50639303D01*
X59428205Y-50776389D01*
X59085341Y-50884776D01*
X58999079Y-50906838D01*
X58851295Y-50941250D01*
X58718663Y-50967935D01*
X58593101Y-50987779D01*
X58466528Y-51001669D01*
X58330863Y-51010492D01*
X58178023Y-51015135D01*
X58000000Y-51016485D01*
X57991645Y-51016422D01*
X57822139Y-51015133D01*
X57669471Y-51010505D01*
X57533854Y-51001748D01*
X57407148Y-50988007D01*
X57281212Y-50968426D01*
X57147906Y-50942152D01*
X57022434Y-50913851D01*
X56674388Y-50815338D01*
X56341301Y-50687672D01*
X56024533Y-50532226D01*
X55725443Y-50350375D01*
X55445389Y-50143495D01*
X55185731Y-49912959D01*
X54947828Y-49660143D01*
X54733038Y-49386421D01*
X54542721Y-49093168D01*
X54378237Y-48781758D01*
X54240943Y-48453566D01*
X54132199Y-48109968D01*
X54092933Y-47950658D01*
X54063253Y-47813349D01*
X54040281Y-47691821D01*
X54023224Y-47578157D01*
X54011288Y-47464436D01*
X54003679Y-47342743D01*
X53999603Y-47205157D01*
X53998923Y-47123169D01*
X54874208Y-47123169D01*
X54899147Y-47439926D01*
X54954387Y-47752678D01*
X55039947Y-48058363D01*
X55155850Y-48353920D01*
X55184209Y-48414755D01*
X55335790Y-48693318D01*
X55512278Y-48950584D01*
X55712015Y-49185532D01*
X55933343Y-49397144D01*
X56174605Y-49584402D01*
X56434142Y-49746287D01*
X56710296Y-49881780D01*
X57001411Y-49989863D01*
X57305827Y-50069516D01*
X57621887Y-50119722D01*
X57947932Y-50139461D01*
X57991645Y-50139737D01*
X58323593Y-50124204D01*
X58645297Y-50077901D01*
X58955378Y-50001274D01*
X59252459Y-49894769D01*
X59535160Y-49758829D01*
X59802105Y-49593901D01*
X59899438Y-49523484D01*
X60140069Y-49321289D01*
X60357076Y-49096538D01*
X60549268Y-48851449D01*
X60715455Y-48588237D01*
X60854447Y-48309120D01*
X60965053Y-48016315D01*
X61046083Y-47712039D01*
X61096346Y-47398509D01*
X61107375Y-47273881D01*
X61112724Y-47195740D01*
X61117402Y-47127454D01*
X61120831Y-47077475D01*
X61122264Y-47056644D01*
X61121942Y-47028278D01*
X61119452Y-46973748D01*
X61115183Y-46900215D01*
X61109525Y-46814839D01*
X61107775Y-46790211D01*
X61068560Y-46465335D01*
X60999548Y-46153334D01*
X60902131Y-45855600D01*
X60777701Y-45573523D01*
X60627648Y-45308493D01*
X60453364Y-45061902D01*
X60256239Y-44835141D01*
X60037666Y-44629599D01*
X59799035Y-44446669D01*
X59541738Y-44287739D01*
X59267165Y-44154202D01*
X58976708Y-44047449D01*
X58671759Y-43968869D01*
X58353708Y-43919853D01*
X58225592Y-43908997D01*
X57894640Y-43902791D01*
X57571990Y-43927360D01*
X57259297Y-43981786D01*
X56958217Y-44065149D01*
X56670404Y-44176532D01*
X56397513Y-44315014D01*
X56141201Y-44479679D01*
X55903122Y-44669607D01*
X55684931Y-44883879D01*
X55488284Y-45121577D01*
X55314836Y-45381781D01*
X55203295Y-45586467D01*
X55077042Y-45877325D01*
X54980986Y-46179485D01*
X54915148Y-46489887D01*
X54879548Y-46805469D01*
X54874208Y-47123169D01*
X53998923Y-47123169D01*
X53998265Y-47043761D01*
X53998258Y-47006513D01*
X53999879Y-46827518D01*
X54005002Y-46673510D01*
X54014506Y-46536158D01*
X54029269Y-46407133D01*
X54050172Y-46278103D01*
X54078093Y-46140737D01*
X54099564Y-46046669D01*
X54191978Y-45720384D01*
X54313375Y-45399060D01*
X54460978Y-45088579D01*
X54632007Y-44794823D01*
X54811657Y-44539193D01*
X54911241Y-44417594D01*
X55028588Y-44286724D01*
X55155266Y-44155249D01*
X55282840Y-44031836D01*
X55402878Y-43925152D01*
X55434934Y-43898694D01*
X55707916Y-43697858D01*
X56001092Y-43519362D01*
X56309783Y-43365234D01*
X56629312Y-43237502D01*
X56955002Y-43138193D01*
X57282174Y-43069336D01*
X57381710Y-43054683D01*
X57451737Y-43045117D01*
X57512759Y-43036212D01*
X57554275Y-43029516D01*
X57561349Y-43028171D01*
X57598947Y-43020416D01*
X57598947Y-38977105D01*
X57559335Y-38977105D01*
X57516183Y-38973590D01*
X57447882Y-38963962D01*
X57361856Y-38949600D01*
X57265528Y-38931878D01*
X57166322Y-38912175D01*
X57071659Y-38891868D01*
X56988964Y-38872333D01*
X56974279Y-38868579D01*
X56644107Y-38765821D01*
X56321942Y-38632031D01*
X56010642Y-38469198D01*
X55713065Y-38279312D01*
X55432070Y-38064363D01*
X55170515Y-37826341D01*
X54931258Y-37567235D01*
X54728459Y-37305124D01*
X54534851Y-37002811D01*
X54370315Y-36686370D01*
X54235174Y-36358144D01*
X54129749Y-36020477D01*
X54054363Y-35675710D01*
X54009337Y-35326186D01*
X53994995Y-34974248D01*
X54011658Y-34622239D01*
X54059648Y-34272501D01*
X54139288Y-33927378D01*
X54226499Y-33654802D01*
X54367089Y-33314699D01*
X54536887Y-32990073D01*
X54734695Y-32682532D01*
X54959312Y-32393683D01*
X55209541Y-32125133D01*
X55484182Y-31878491D01*
X55645221Y-31752746D01*
X55705114Y-31708288D01*
X55946011Y-32054356D01*
G37*
%TD*%
M02*
